<svg width="107" height="107" viewBox="0 0 107 107" fill="none" xmlns="http://www.w3.org/2000/svg">
  <circle cx="53.7278" cy="52.62" r="48.1889" fill="#DFDFDF"/>
  <path fill-rule="evenodd" clip-rule="evenodd" d="M83.0782 29.4652L76.8805 23.2675L64.7977 35.3523L58.8216 29.3782L57.5654 48.7803L76.9676 47.5242L70.9934 41.55L83.0782 29.4652Z" fill="#1F1F1F"/>
  <path fill-rule="evenodd" clip-rule="evenodd" d="M29.4651 83.0783L23.2675 76.8806L35.3523 64.7978L29.3781 58.8216L48.7803 57.5655L47.5241 76.9676L41.5499 70.9935L29.4651 83.0783Z" fill="#1F1F1F"/>
  <path fill-rule="evenodd" clip-rule="evenodd" d="M29.4651 23.2675L23.2675 29.4652L35.3523 41.55L29.3781 47.5242L48.7803 48.7803L47.5241 29.3782L41.5499 35.3523L29.4651 23.2675Z" fill="#1F1F1F"/>
  <path fill-rule="evenodd" clip-rule="evenodd" d="M83.0782 76.8806L76.8805 83.0783L64.7977 70.9935L58.8216 76.9676L57.5654 57.5655L76.9676 58.8216L70.9934 64.7978L83.0782 76.8806Z" fill="#1F1F1F"/>
  <path fill-rule="evenodd" clip-rule="evenodd" d="M53.1739 106.348C23.8056 106.348 0 82.5402 0 53.1739C0 23.8076 23.8056 0 53.1739 0C82.5402 0 106.348 23.8076 106.348 53.1739C106.348 82.5402 82.5402 106.348 53.1739 106.348ZM9.13729 53.1739C9.13729 77.4939 28.852 97.2086 53.1739 97.2086C77.4939 97.2086 97.2086 77.4939 97.2086 53.1739C97.2086 28.852 77.4939 9.13729 53.1739 9.13729C28.852 9.13729 9.13729 28.852 9.13729 53.1739Z" fill="#1F1F1F"/>
</svg>
