<svg width="106" height="106" viewBox="0 0 106 106" fill="none" xmlns="http://www.w3.org/2000/svg">
  <circle cx="53" cy="53" r="50.5" fill="#DFDFDF" stroke="#1F1F1F" stroke-width="5"/>
  <path d="M39.1111 46.5194C39.1111 44.5546 39.8916 42.6703 41.281 41.281C42.6703 39.8916 44.5546 39.1111 46.5194 39.1111H70.5917C71.5645 39.1111 72.5279 39.3027 73.4267 39.675C74.3255 40.0473 75.1422 40.593 75.8301 41.281C76.5181 41.9689 77.0638 42.7856 77.4361 43.6844C77.8084 44.5832 78 45.5466 78 46.5194V70.5917C78 71.5645 77.8084 72.5279 77.4361 73.4267C77.0638 74.3255 76.5181 75.1422 75.8301 75.8301C75.1422 76.5181 74.3255 77.0638 73.4267 77.4361C72.5279 77.8084 71.5645 78 70.5917 78H46.5194C45.5466 78 44.5832 77.8084 43.6844 77.4361C42.7856 77.0638 41.9689 76.5181 41.281 75.8301C40.593 75.1422 40.0473 74.3255 39.675 73.4267C39.3027 72.5279 39.1111 71.5645 39.1111 70.5917V46.5194Z" fill="#DFDFDF"/>
  <path d="M30.8111 66.1583C29.9593 65.6727 29.2508 64.9708 28.7572 64.1236C28.2635 63.2764 28.0024 62.3139 28 61.3333V33.5556C28 30.5 30.5 28 33.5556 28H61.3333C63.4167 28 64.55 29.0694 65.5 30.7778" fill="#DFDFDF"/>
  <path d="M30.8111 66.1583C29.9593 65.6727 29.2508 64.9708 28.7572 64.1236C28.2635 63.2764 28.0024 62.3139 28 61.3333V33.5556C28 30.5 30.5 28 33.5556 28H61.3333C63.4167 28 64.55 29.0694 65.5 30.7778M39.1111 46.5194C39.1111 44.5546 39.8916 42.6703 41.281 41.281C42.6703 39.8916 44.5546 39.1111 46.5194 39.1111H70.5917C71.5645 39.1111 72.5279 39.3027 73.4267 39.675C74.3255 40.0473 75.1422 40.593 75.8301 41.281C76.5181 41.9689 77.0638 42.7856 77.4361 43.6844C77.8084 44.5832 78 45.5466 78 46.5194V70.5917C78 71.5645 77.8084 72.5279 77.4361 73.4267C77.0638 74.3255 76.5181 75.1422 75.8301 75.8301C75.1422 76.5181 74.3255 77.0638 73.4267 77.4361C72.5279 77.8084 71.5645 78 70.5917 78H46.5194C45.5466 78 44.5832 77.8084 43.6844 77.4361C42.7856 77.0638 41.9689 76.5181 41.281 75.8301C40.593 75.1422 40.0473 74.3255 39.675 73.4267C39.3027 72.5279 39.1111 71.5645 39.1111 70.5917V46.5194Z" stroke="#1F1F1F" stroke-width="6" stroke-linecap="round" stroke-linejoin="round"/>
</svg>
