<svg width="106" height="106" viewBox="0 0 106 106" fill="none" xmlns="http://www.w3.org/2000/svg">
  <circle cx="53" cy="53" r="50.5" fill="#DFDFDF" stroke="#1F1F1F" stroke-width="5"/>
  <path d="M79.67 32.4C80.5197 32.4009 81.3369 32.7279 81.9548 33.314C82.5727 33.9002 82.9445 34.7013 82.9943 35.5537C83.0441 36.4061 82.7681 37.2454 82.2227 37.9001C81.6773 38.5549 80.9038 38.9757 80.06 39.0765L79.67 39.1H79.3999L76.3362 75.95C76.3363 78.5135 75.3617 80.9801 73.6116 82.8452C71.8615 84.7103 69.4683 85.8329 66.9217 85.9833L66.335 86H39.665C34.3377 86 29.9838 81.8158 29.6905 76.7875L29.6738 76.228L26.5967 39.1H26.3301C25.4803 39.0991 24.6631 38.7721 24.0452 38.186C23.4273 37.5998 23.0555 36.7987 23.0057 35.9463C22.9559 35.0939 23.2319 34.2546 23.7773 33.5999C24.3227 32.9451 25.0962 32.5243 25.94 32.4234L26.3301 32.4H79.67ZM48.0361 49.619C47.3376 49.2012 46.5112 49.0542 45.7125 49.2057C44.9137 49.3572 44.1975 49.7968 43.6987 50.4417C43.1998 51.0866 42.9526 51.8925 43.0036 52.7077C43.0546 53.5229 43.4003 54.2914 43.9756 54.8684L48.2828 59.2L43.9756 63.5315L43.6989 63.8464C43.1808 64.5198 42.9371 65.366 43.0174 66.2133C43.0978 67.0606 43.496 67.8454 44.1313 68.4083C44.7666 68.9712 45.5913 69.27 46.4379 69.2441C47.2845 69.2181 48.0895 68.8693 48.6895 68.2685L53 63.9402L57.3105 68.2685L57.6239 68.5465C58.294 69.0671 59.1361 69.3119 59.9793 69.2312C60.8225 69.1505 61.6035 68.7503 62.1636 68.1119C62.7238 67.4735 63.0212 66.6448 62.9953 65.7941C62.9695 64.9434 62.6223 64.1344 62.0244 63.5315L57.7172 59.2L62.0244 54.8684L62.3011 54.5535C62.8192 53.8802 63.0629 53.034 62.9826 52.1867C62.9022 51.3394 62.504 50.5546 61.8687 49.9917C61.2334 49.4288 60.4087 49.13 59.5621 49.1559C58.7155 49.1819 57.9105 49.5307 57.3105 50.1315L53 54.4597L48.6895 50.1315L48.3761 49.8535L48.0361 49.619Z" fill="#BD2130"/>
  <path d="M59.6675 19C61.4358 19 63.1317 19.7059 64.3821 20.9624C65.6325 22.2189 66.335 23.923 66.335 25.7C66.3341 26.5538 66.0087 27.3751 65.4254 27.996C64.8421 28.6169 64.0449 28.9905 63.1966 29.0405C62.3484 29.0906 61.5131 28.8132 60.8616 28.2652C60.21 27.7172 59.7912 26.9398 59.6909 26.092L59.6675 25.7H46.3325L46.3092 26.092C46.2089 26.9398 45.7901 27.7172 45.1385 28.2652C44.4869 28.8132 43.6517 29.0906 42.8034 29.0405C41.9552 28.9905 41.158 28.6169 40.5747 27.996C39.9914 27.3751 39.666 26.5538 39.6651 25.7C39.6645 24.0097 40.2998 22.3816 41.4436 21.1422C42.5874 19.9027 44.1551 19.1435 45.8325 19.0168L46.3325 19H59.6675Z" fill="#BD2130"/>
</svg>
